<svg width="210" height="38" viewBox="0 0 210 38" fill="none" xmlns="http://www.w3.org/2000/svg">
<path d="M3 16.5C1.61929 16.5 0.5 17.6193 0.5 19C0.5 20.3807 1.61929 21.5 3 21.5L3 16.5ZM208.768 20.7677C209.744 19.7914 209.744 18.2085 208.768 17.2322L192.858 1.32231C191.882 0.346003 190.299 0.346003 189.322 1.32231C188.346 2.29862 188.346 3.88154 189.322 4.85785L203.464 19L189.322 33.1421C188.346 34.1184 188.346 35.7013 189.322 36.6777C190.299 37.654 191.882 37.654 192.858 36.6777L208.768 20.7677ZM8.1 21.5C9.48071 21.5 10.6 20.3807 10.6 19C10.6 17.6193 9.48071 16.5 8.1 16.5L8.1 21.5ZM18.3 16.5C16.9193 16.5 15.8 17.6193 15.8 19C15.8 20.3807 16.9193 21.5 18.3 21.5L18.3 16.5ZM28.5 21.5C29.8807 21.5 31 20.3807 31 19C31 17.6193 29.8807 16.5 28.5 16.5L28.5 21.5ZM38.7 16.5C37.3193 16.5 36.2 17.6193 36.2 19C36.2 20.3807 37.3193 21.5 38.7 21.5L38.7 16.5ZM48.9 21.5C50.2807 21.5 51.4 20.3807 51.4 19C51.4 17.6193 50.2807 16.5 48.9 16.5L48.9 21.5ZM59.1 16.5C57.7193 16.5 56.6 17.6193 56.6 19C56.6 20.3807 57.7193 21.5 59.1 21.5L59.1 16.5ZM69.3 21.5C70.6807 21.5 71.8 20.3807 71.8 19C71.8 17.6193 70.6807 16.5 69.3 16.5L69.3 21.5ZM79.5 16.5C78.1193 16.5 77 17.6193 77 19C77 20.3807 78.1193 21.5 79.5 21.5L79.5 16.5ZM89.7 21.5C91.0807 21.5 92.2 20.3807 92.2 19C92.2 17.6193 91.0807 16.5 89.7 16.5L89.7 21.5ZM99.9 16.5C98.5193 16.5 97.4 17.6193 97.4 19C97.4 20.3807 98.5193 21.5 99.9 21.5L99.9 16.5ZM110.1 21.5C111.481 21.5 112.6 20.3807 112.6 19C112.6 17.6193 111.481 16.5 110.1 16.5L110.1 21.5ZM120.3 16.5C118.919 16.5 117.8 17.6193 117.8 19C117.8 20.3807 118.919 21.5 120.3 21.5L120.3 16.5ZM130.5 21.5C131.881 21.5 133 20.3807 133 19C133 17.6193 131.881 16.5 130.5 16.5L130.5 21.5ZM140.7 16.5C139.319 16.5 138.2 17.6193 138.2 19C138.2 20.3807 139.319 21.5 140.7 21.5L140.7 16.5ZM150.9 21.5C152.281 21.5 153.4 20.3807 153.4 19C153.4 17.6193 152.281 16.5 150.9 16.5L150.9 21.5ZM161.1 16.5C159.719 16.5 158.6 17.6193 158.6 19C158.6 20.3807 159.719 21.5 161.1 21.5L161.1 16.5ZM171.3 21.5C172.681 21.5 173.8 20.3807 173.8 19C173.8 17.6193 172.681 16.5 171.3 16.5L171.3 21.5ZM181.5 16.5C180.119 16.5 179 17.6193 179 19C179 20.3807 180.119 21.5 181.5 21.5L181.5 16.5ZM191.7 21.5C193.081 21.5 194.2 20.3807 194.2 19C194.2 17.6193 193.081 16.5 191.7 16.5L191.7 21.5ZM201.9 16.5C200.519 16.5 199.4 17.6193 199.4 19C199.4 20.3807 200.519 21.5 201.9 21.5L201.9 16.5ZM3 21.5L8.1 21.5L8.1 16.5L3 16.5L3 21.5ZM18.3 21.5L28.5 21.5L28.5 16.5L18.3 16.5L18.3 21.5ZM38.7 21.5L48.9 21.5L48.9 16.5L38.7 16.5L38.7 21.5ZM59.1 21.5L69.3 21.5L69.3 16.5L59.1 16.5L59.1 21.5ZM79.5 21.5L89.7 21.5L89.7 16.5L79.5 16.5L79.5 21.5ZM99.9 21.5L110.1 21.5L110.1 16.5L99.9 16.5L99.9 21.5ZM120.3 21.5L130.5 21.5L130.5 16.5L120.3 16.5L120.3 21.5ZM140.7 21.5L150.9 21.5L150.9 16.5L140.7 16.5L140.7 21.5ZM161.1 21.5L171.3 21.5L171.3 16.5L161.1 16.5L161.1 21.5ZM181.5 21.5L191.7 21.5L191.7 16.5L181.5 16.5L181.5 21.5ZM201.9 21.5L207 21.5L207 16.5L201.9 16.5L201.9 21.5Z" fill="black"/>
</svg>
